<svg xmlns="http://www.w3.org/2000/svg" viewBox="0 0 487.98 286.31"><defs><style>.cls-1{fill:#fff;}</style></defs><title>Asset 1</title><g id="Layer_2" data-name="Layer 2"><g id="Layer_1-2" data-name="Layer 1"><path class="cls-1" d="M89.19,144.62H32.4l26-34.58L68.5,96.52,87.38,71.37l5-6.63H36.2V38.11H146.52L114,81.54l-11.5,15.34L86.65,118h123.8l-27.72-13.56V45.68A45.79,45.79,0,0,0,137,0H0V137.08a45.77,45.77,0,0,0,45.68,45.65h137v-25l27.72-13.15H89.19Z"/><path class="cls-1" d="M340.9,55.73H259.23V88.5h75v26.8h-75V155h85.43v27.75H227.72V28.4H340.9Z"/><path class="cls-1" d="M483.92,55.73H402.25V88.5h75v26.8h-75V155h85.43v27.75H370.74V28.4H483.92Z"/><path class="cls-1" d="M9.55,206.1H45.62q8.91,0,14.69,2.6,11,5,11,18.41,0,7-2.89,11.46a20.9,20.9,0,0,1-8.09,7.16,15.93,15.93,0,0,1,6.87,4.88q2.31,3,2.57,9.81l.37,10.45a32.12,32.12,0,0,0,.74,6.63q1,3.71,3.39,4.77V284H61.32a9.68,9.68,0,0,1-.85-2.6,49.5,49.5,0,0,1-.53-6.15l-.64-13q-.37-7.64-5.68-10.24-3-1.43-9.5-1.43h-24V284H9.55Zm35,35.7q7.43,0,11.75-3t4.32-10.71q0-8.33-6-11.35a19.77,19.77,0,0,0-8.65-1.59H20.11V241.8Z"/><path class="cls-1" d="M87.74,206.1h56.81v9.55H98v23.66h43v9H98v26.42h47.32V284H87.74Z"/><path class="cls-1" d="M159.2,206.1h12.47L211,269.23V206.1h10V284H209.22L169.27,221V284H159.2Z"/><path class="cls-1" d="M294.36,206.1v9.28H268.1V284H257.39V215.38H231.13V206.1Z"/><path class="cls-1" d="M318.66,206.1h11.94L358.87,284H347.3l-7.9-23.34H308.58L300.14,284H289.32Zm17.35,46-11.83-34.43L311.6,252.09Z"/><path class="cls-1" d="M368.47,206.1H379v68.64h39.47V284h-50Z"/><path class="cls-1" d="M435.79,258.88a21.28,21.28,0,0,0,3.13,10.77q5.25,7.75,18.51,7.75a32.77,32.77,0,0,0,10.82-1.7q9.44-3.29,9.44-11.78,0-6.37-4-9.07t-12.62-4.62l-10.56-2.39q-10.34-2.33-14.64-5.15-7.43-4.88-7.43-14.59a22.47,22.47,0,0,1,7.27-17.24q7.27-6.74,20.58-6.74,12.25,0,20.82,5.91T485.7,229h-9.92q-.8-6.26-3.4-9.6-4.83-6.1-16.39-6.1-9.34,0-13.42,3.93a12.28,12.28,0,0,0-4.08,9.12,8.91,8.91,0,0,0,4.77,8.38q3.13,1.7,14.16,4.24l10.93,2.49q7.9,1.8,12.2,4.93,7.43,5.46,7.43,15.86,0,12.94-9.42,18.51a42.16,42.16,0,0,1-21.88,5.57q-14.54,0-22.76-7.43t-8.06-20Z"/></g></g></svg>