<svg xmlns="http://www.w3.org/2000/svg" viewBox="0 0 501.83 288.18"><defs><style>.cls-1{fill:#9d101a;}.cls-2{fill:#fff;}</style></defs><title>logo_1</title><g id="Layer_2" data-name="Layer 2"><g id="Layer_1-2" data-name="Layer 1"><path class="cls-1" d="M89.19,144.62H32.4l26-34.58L68.5,96.52,87.38,71.37l5-6.63H36.2V38.11H146.52L114,81.54l-11.5,15.34L86.65,118h123.8l-27.72-13.56V45.68A45.79,45.79,0,0,0,137,0H0V137.08a45.77,45.77,0,0,0,45.68,45.65h137v-25l27.72-13.15H89.19Z"/><path class="cls-2" d="M340.9,55.73H259.23V88.5h75v26.8h-75V155h85.43v27.75H227.72V28.4H340.9Z"/><path class="cls-2" d="M483.92,55.73H402.25V88.5h75v26.8h-75V155h85.43v27.75H370.74V28.4H483.92Z"/><path class="cls-2" d="M58.38,210a19.3,19.3,0,0,1,7.32,5.46A24.34,24.34,0,0,1,69.64,222a21.94,21.94,0,0,1,1.45,8.22,23.42,23.42,0,0,1-2.81,11A15.71,15.71,0,0,1,59,248.82,14.61,14.61,0,0,1,66.65,255q2.25,4,2.25,12.23v5.25a39.57,39.57,0,0,0,.43,7.27,6.52,6.52,0,0,0,3,4.46v2h-18q-.74-2.6-1.06-4.19a38.54,38.54,0,0,1-.69-6.74L52.46,268q-.1-7.48-2.58-10t-9.31-2.49h-16v30.66h-16V208H46Q54.06,208.14,58.38,210ZM24.61,221.56v21H42.2q5.24,0,7.86-1.27,4.63-2.23,4.63-8.81,0-7.11-4.48-9.55-2.52-1.38-7.56-1.38Z"/><path class="cls-2" d="M144.56,221.82H103.18v16.6h38V252h-38v20.1h43.29v14.06H87.21V208h57.34Z"/><path class="cls-2" d="M158.93,208h17.13l31,54.52V208h15.22v78.19H206l-31.83-55.48v55.48H158.93Z"/><path class="cls-2" d="M294.47,208v13.85h-23.4v64.35H254.63V221.82h-23.5V208Z"/><path class="cls-2" d="M318.37,208h18.49l27.66,78.19H346.8l-5.16-16.07H312.85l-5.3,16.07H290.45Zm-1.08,48.65h20l-9.88-30.77Z"/><path class="cls-2" d="M374.46,208H390.8v64.13h39v14.06H374.46Z"/><path class="cls-2" d="M452.6,262q.76,5.36,3,8,4.06,4.83,13.92,4.83a30,30,0,0,0,9.59-1.27q7-2.44,7-9.07a6.68,6.68,0,0,0-3.42-6q-3.42-2.07-10.86-3.66L463.33,253q-12.48-2.76-17.15-6-7.9-5.41-7.9-16.92A22.47,22.47,0,0,1,446,212.64q7.73-6.95,22.72-6.95,12.51,0,21.35,6.55t9.26,19h-15.7q-.44-7.05-6.31-10a21.61,21.61,0,0,0-9.73-2q-6.47,0-10.33,2.55a8.06,8.06,0,0,0-3.86,7.11,6.71,6.71,0,0,0,3.81,6.26q2.45,1.38,10.39,3.24l13.72,3.24q9,2.12,13.52,5.68,7,5.52,7,16a22.44,22.44,0,0,1-8.28,17.8q-8.29,7.08-23.4,7.08-15.44,0-24.29-7T437,262Z"/></g></g></svg>